Simulation
nRows=39
nColumns=15
endheader
time  TH_x TH_y TH_z SC_y  SC_z  SC_x  AC_y  AC_z  AC_x  GH_y  GH_z  GH_yy  EL_x  PS_y
8.073123595505619  0.000000  0.000000  0.000000  -23.453665110603122  6.142439840579998  -4.133094065899223  57.98959938368662  8.338628536386905  8.25173206017564  -39.18717604991531  4.306425536902916  94.89048428283745  16.768131548625945  120.000000
8.113288389513109  0.000000  0.000000  0.000000  -23.093647986376794  6.047152283003866  -4.699459395312163  58.12010544142934  7.892405482240747  8.587297648756621  -24.938984724488787  5.371588307951172  80.05960539752671  16.27535659381416  120.000000
8.153453183520599  0.000000  0.000000  0.000000  -22.725925273351205  5.927204019152546  -5.27407606076136  58.294468957318166  7.476241159342136  8.9560827461748  -15.043183224306715  6.701500084483993  69.39837358227646  15.728480352026711  120.000000
8.19361797752809  0.000000  0.000000  0.000000  -22.365820687210576  5.799998412544691  -5.824162386595424  58.52012245193053  7.121965361060407  9.357365147992429  -7.868857021364783  8.248052373984171  61.27897722255922  15.146827467049276  120.000000
8.23378277153558  0.000000  0.000000  0.000000  -22.0304079651999  5.6873019692916  -6.3187932261925965  58.80204872158379  6.859054920205806  9.786708059478057  -2.4119594602223975  10.001185864240039  54.704470250934165  14.552207508254572  120.000000
8.273947565543072  0.000000  0.000000  0.000000  -21.7344020891677  5.611007453250272  -6.731849680467028  59.14268683219678  6.71116985570542  10.23814741992562  1.8945063814991703  11.962589614852984  49.11900782973306  13.96683044416178  120.000000
8.314112359550561  0.000000  0.000000  0.000000  -21.48995397495577  5.587482110823775  -7.0424623951042005  59.54124684237475  6.692400988720566  10.706063187619707  5.379222213953666  14.132191124771616  44.20919502417438  13.41055830430017  120.000000
8.354277153558053  0.000000  0.000000  0.000000  -21.30271900603794  5.625552137681086  -7.235356780952008  59.99203048307013  6.80641886387011  11.186178818195557  8.235979585088502  16.500223817409932  39.80132131667094  12.899198246253215  120.000000
8.394441947565543  0.000000  0.000000  0.000000  -21.171486751359573  5.729962173892549  -7.301575086613314  60.48927204388908  7.047685863546639  11.671479385335196  10.596523990585226  19.046996558481517  35.787934581388924  12.44263946975874  120.000000
8.434606741573035  0.000000  0.000000  0.000000  -21.08949516934246  5.902452314390888  -7.237003960149681  61.02736660440386  7.404617552949725  12.15301513014548  12.560142505056584  21.74553207545374  32.096350748277025  12.044660345593831  120.000000
8.474771535580524  0.000000  0.000000  0.000000  -21.04694221021946  6.138664960583714  -7.0393848147117675  61.59563704365508  7.860567602294428  12.625290443339788  14.19872196777134  24.56305335602777  28.682543273583775  11.704306189538633  120.000000
8.514936329588014  0.000000  0.000000  0.000000  -21.03394026683708  6.430216529843331  -6.709686338678536  62.183264166719  8.39508382106125  13.083846427539624  15.568118601582972  27.464207452726612  25.516494305516492  11.41653130594772  120.000000
8.555101123595506  0.000000  0.000000  0.000000  -21.04239109324951  6.768535858660187  -6.251687065516455  62.78122808379973  8.985535671733906  13.524432145490037  16.713344956620944  30.412594881061423  22.576273691844147  11.174735181188186  120.000000
8.595265917602996  0.000000  0.000000  0.000000  -21.067941744430794  7.14361353625568  -5.670561176038856  63.379261644648835  9.607667126346884  13.943888556605701  17.670057819852932  33.373271231595176  19.84489038138755  10.972371800624826  120.000000
8.635430711610487  0.000000  0.000000  0.000000  -21.11003393508294  7.544548507380323  -4.973247727694207  63.9653577361512  10.236860678126293  14.33922092695191  18.464694063639595  36.313644618642655  17.309092208905376  10.803435428325509  120.000000
8.675595505617977  0.000000  0.000000  0.000000  -21.171821263429962  7.961334822114272  -4.168086866953788  64.52619394744484  10.849408205893127  14.707560818417399  19.11734671457319  39.204005344710396  14.957413472552656  10.663031392330437  120.000000
8.715760299625469  0.000000  0.000000  0.000000  -21.257928707573182  8.38509146972124  -3.264293827157066  65.04906049763278  11.424389061283158  15.046253268803756  19.643990209689914  42.01852665614169  12.778070171775628  10.547080942973993  120.000000
8.755925093632959  0.000000  0.000000  0.000000  -21.372760670669837  8.808273655474775  -2.272040939439076  65.52338725328144  11.944171598038842  15.353437418789028  20.05778093080959  44.73459965075298  10.759201468711053  10.45279487610864  120.000000
8.79608988764045  0.000000  0.000000  0.000000  -21.51952569074348  9.224528326129438  -1.2031955357733457  65.94123941308514  12.394171624269065  15.627907505626245  20.369892110474932  47.332380825710665  8.888665286385471  10.378542549044456  120.000000
8.83625468164794  0.000000  0.000000  0.000000  -21.69921190537585  9.628601595806257  -0.0711885150677719  66.29721177276413  12.76349997782716  15.868903855170663  20.589685027743254  49.79446381588655  7.155014788466851  10.32331454938351  120.000000
8.87641947565543  0.000000  0.000000  0.000000  -21.910496763070423  10.016438066059367  1.109252407224732  66.58877088318393  13.045601213132393  16.076267888455778  20.725693425562238  52.106449266252504  5.547333024926967  10.286342986937019  120.000000
8.916584269662922  0.000000  0.000000  0.000000  -22.149709551668032  10.38509724504148  2.32261923918388  66.81634372310818  13.23861269573202  16.25045396189898  20.786379848044323  54.257012765966536  4.055834822055499  10.266658347863656  120.000000
8.956749063670411  0.000000  0.000000  0.000000  -22.41137706213567  10.732550401569325  3.5529185991735868  66.98297128553635  13.345171169420528  16.392485299849536  20.78053556337596  56.23806231607318  2.6724724876268766  10.262753937686686  120.000000
8.996913857677903  0.000000  0.000000  0.000000  -22.689241376908814  11.05743060693118  4.784284594460399  67.09373675733585  13.371896330626017  16.50388482562402  20.71753188403057  58.04462078452117  1.3917297124329921  10.272172466204987  120.000000
9.037078651685393  0.000000  0.000000  0.000000  -22.977015565631323  11.3588816592459  6.001512216928391  67.15497244055024  13.328689036594605  16.586648004518235  20.60751015837795  59.67495089744444  0.21107326287421813  10.29142428802747  120.000000
9.077243445692885  0.000000  0.000000  0.000000  -23.268940835978103  11.636323453519159  7.190705398427159  67.17368930627033  13.2280134278082  16.643258897319143  20.461394907593956  61.13041671526505  -0.869089829679545  10.316057021562715  120.000000
9.117408239700374  0.000000  0.000000  0.000000  -23.560172358796166  11.88941880670918  8.339518379157253  67.15702808334717  13.083937010978444  16.676639658069558  20.290637031911423  62.41513775454382  -1.845953141435088  10.341172124807832  120.000000
9.157573033707866  0.000000  0.000000  0.000000  -23.846745783653624  12.1178313131575  9.437061955280107  67.1121282082884  12.910792114160067  16.689894793367184  20.10680256242104  63.535007798361164  -2.7153081045910024  10.362103800729724  120.000000
9.197737827715356  0.000000  0.000000  0.000000  -24.124908194274568  12.320843081209967  10.473267804842628  67.04630591929289  12.72164002828248  16.68605184337393  19.921458346526812  64.49633278151266  -3.4728379774940374  10.375197898138728  120.000000
9.237902621722846  0.000000  0.000000  0.000000  -24.390356623891897  12.497241410758985  11.438276756676661  66.96745404044212  12.526979264246883  16.667761166108082  19.746049168624545  65.30435574942825  -4.115362515046294  10.378516756498586  120.000000
9.278067415730337  0.000000  0.000000  0.000000  -24.637736696787275  12.645405560855389  12.322134600389752  66.88419732818403  12.333954111764747  16.636906082839293  19.59168812699176  65.96217435122824  -4.641621123356976  10.372052373287083  120.000000
9.318232209737827  0.000000  0.000000  0.000000  -24.860468487536263  12.763488533303875  13.114805440538694  66.80574029505603  12.146180986511771  16.594330408529906  19.468773451513297  66.47005402605915  -5.05244222788678  10.357444296438036  120.000000
9.358397003745319  0.000000  0.000000  0.000000  -25.05086866018277  12.849607219391245  13.806384237705386  66.74137517188322  11.96405842783741  16.539700659226348  19.38670079836774  66.82519116656285  -5.350302096772346  10.337156679291386  120.000000
9.398561797752809  0.000000  0.000000  0.000000  -25.200590667370037  12.901983328817401  14.387442402843845  66.69971522305585  11.785363662386914  16.471555186634887  19.353468642606362  67.02180355864446  -5.538473731868421  10.313507728615356  120.000000
9.4387265917603  0.000000  0.000000  0.000000  -25.301441205792482  12.919045955731178  14.84937065602098  66.68773061261165  11.606075094691688  16.38738716334568  19.37526402775798  67.05150575798712  -5.619973640840937  10.287664979136478  120.000000
9.47889138576779  0.000000  0.000000  0.000000  -25.346148608452694  12.899504798439743  15.184565970014845  66.70978365608234  11.421136803533278  16.28392441150747  19.456022635137252  66.90378213109064  -5.5965745807315885  10.259016759208023  120.000000
9.519056179775282  0.000000  0.000000  0.000000  -25.328773020925897  12.84230157755612  15.386429199704686  66.76705822144893  11.224885773027193  16.1574202062847  19.59736202859127  66.56629250419192  -5.468113275541127  10.225193802267173  120.000000
9.559220973782772  0.000000  0.000000  0.000000  -25.24492967073621  12.74654036726051  15.448860048812538  66.85734547252198  11.011597135995173  16.004182567117745  19.7986326514348  66.02520335646444  -5.232265844274525  10.182802346533402  120.000000
9.599385767790261  0.000000  0.000000  0.000000  -25.092205443835457  12.611475947862559  15.365979917885408  66.97466479605379  10.776332826480353  15.821179006815381  20.056721240832918  65.26573085077038  -4.8844773759739715  10.128730002404152  120.000000
